<?xml version="1.0" encoding="UTF-8"?>
<svg width="21px" height="26px" viewBox="0 0 21 26" version="1.1" xmlns="http://www.w3.org/2000/svg" xmlns:xlink="http://www.w3.org/1999/xlink">
    <!-- Generator: Sketch 41 (35326) - http://www.bohemiancoding.com/sketch -->
    <title>Slice 9</title>
    <desc>Created with Sketch.</desc>
    <defs>
        <ellipse id="path-1" cx="10.5" cy="24.5" rx="1.5" ry="1.5"></ellipse>
        <mask id="mask-2" maskContentUnits="userSpaceOnUse" maskUnits="objectBoundingBox" x="0" y="0" width="3" height="3" fill="white">
            <use xlink:href="#path-1"></use>
        </mask>
        <ellipse id="path-3" cx="3.5" cy="23.5" rx="1.5" ry="1.5"></ellipse>
        <mask id="mask-4" maskContentUnits="userSpaceOnUse" maskUnits="objectBoundingBox" x="0" y="0" width="3" height="3" fill="white">
            <use xlink:href="#path-3"></use>
        </mask>
        <ellipse id="path-5" cx="17.5" cy="23.5" rx="1.5" ry="1.5"></ellipse>
        <mask id="mask-6" maskContentUnits="userSpaceOnUse" maskUnits="objectBoundingBox" x="0" y="0" width="3" height="3" fill="white">
            <use xlink:href="#path-5"></use>
        </mask>
        <rect id="path-7" x="10" y="16" width="1" height="4"></rect>
        <mask id="mask-8" maskContentUnits="userSpaceOnUse" maskUnits="objectBoundingBox" x="0" y="0" width="1" height="4" fill="white">
            <use xlink:href="#path-7"></use>
        </mask>
        <rect id="path-9" x="5" y="21" width="11" height="1"></rect>
        <mask id="mask-10" maskContentUnits="userSpaceOnUse" maskUnits="objectBoundingBox" x="0" y="0" width="11" height="1" fill="white">
            <use xlink:href="#path-9"></use>
        </mask>
        <rect id="path-11" x="8" y="19" width="5" height="3"></rect>
        <mask id="mask-12" maskContentUnits="userSpaceOnUse" maskUnits="objectBoundingBox" x="0" y="0" width="5" height="3" fill="white">
            <use xlink:href="#path-11"></use>
        </mask>
        <path d="M5,2.00010618 C5,0.895478039 5.90017617,0 6.99201702,0 L14.007983,0 C15.1081436,0 16,0.890058413 16,2.00010618 L16,17 L5,17 L5,2.00010618 Z" id="path-13"></path>
        <mask id="mask-14" maskContentUnits="userSpaceOnUse" maskUnits="objectBoundingBox" x="0" y="0" width="11" height="17" fill="white">
            <use xlink:href="#path-13"></use>
        </mask>
        <path d="M3,15.5 C3,14.6715729 3.67207031,14 4.49449159,14 C4.49449159,14 6.75,14 11,14 L16.5098779,14 C17.3328496,14 18,14.6657972 18,15.5 L18,17 L3,17 L3,15.5 Z" id="path-15"></path>
        <mask id="mask-16" maskContentUnits="userSpaceOnUse" maskUnits="objectBoundingBox" x="0" y="0" width="15" height="3" fill="white">
            <use xlink:href="#path-15"></use>
        </mask>
        <rect id="path-17" x="10" y="22" width="1" height="2"></rect>
        <mask id="mask-18" maskContentUnits="userSpaceOnUse" maskUnits="objectBoundingBox" x="0" y="0" width="1" height="2" fill="white">
            <use xlink:href="#path-17"></use>
        </mask>
        <rect id="path-19" x="0" y="11" width="3" height="1"></rect>
        <mask id="mask-20" maskContentUnits="userSpaceOnUse" maskUnits="objectBoundingBox" x="0" y="0" width="3" height="1" fill="white">
            <use xlink:href="#path-19"></use>
        </mask>
        <rect id="path-21" x="18" y="11" width="3" height="1"></rect>
        <mask id="mask-22" maskContentUnits="userSpaceOnUse" maskUnits="objectBoundingBox" x="0" y="0" width="3" height="1" fill="white">
            <use xlink:href="#path-21"></use>
        </mask>
    </defs>
    <g id="Symbols" stroke="none" stroke-width="1" fill="none" fill-rule="evenodd">
        <g id="Icon/36x36/09">
            <use id="Oval-5" stroke="#333333" mask="url(#mask-2)" stroke-width="2" fill="#FFFFFF" xlink:href="#path-1"></use>
            <use id="Oval-5" stroke="#333333" mask="url(#mask-4)" stroke-width="2" fill="#FFFFFF" xlink:href="#path-3"></use>
            <use id="Oval-5" stroke="#333333" mask="url(#mask-6)" stroke-width="2" fill="#FFFFFF" xlink:href="#path-5"></use>
            <use id="Rectangle-29" stroke="#333333" mask="url(#mask-8)" stroke-width="2" fill="#FFFFFF" xlink:href="#path-7"></use>
            <use id="Rectangle-53" stroke="#333333" mask="url(#mask-10)" stroke-width="2" xlink:href="#path-9"></use>
            <use id="Rectangle-33" stroke="#333333" mask="url(#mask-12)" stroke-width="2" fill="#EAEAEA" xlink:href="#path-11"></use>
            <use id="Rectangle-27" stroke="#333333" mask="url(#mask-14)" stroke-width="2" fill="#EAEAEA" xlink:href="#path-13"></use>
            <use id="Rectangle-28" stroke="#333333" mask="url(#mask-16)" stroke-width="2" fill="#FFFFFF" xlink:href="#path-15"></use>
            <path d="M1,15 L3,15 L3,17 L2,17 C1.44771525,17 1,16.5561352 1,16 L1,15 Z M2,15 L3,15 L3,16 L2,16 L2,15 Z" id="Combined-Shape" fill="#333333"></path>
            <path d="M5,23 C3.8954305,23 3,22.1045695 3,21 L4,21 C4,21.5522847 4.44771525,22 5,22 L5,23 Z" id="Combined-Shape" fill="#333333" transform="translate(4.000000, 22.000000) scale(1, -1) translate(-4.000000, -22.000000) "></path>
            <path d="M18,23 C16.8954305,23 16,22.1045695 16,21 L17,21 C17,21.5522847 17.4477153,22 18,22 L18,23 Z" id="Combined-Shape" fill="#333333" transform="translate(17.000000, 22.000000) scale(-1, -1) translate(-17.000000, -22.000000) "></path>
            <use id="Rectangle-34" stroke="#333333" mask="url(#mask-18)" stroke-width="2" xlink:href="#path-17"></use>
            <rect id="Rectangle-30" fill="#333333" transform="translate(1.500000, 13.000000) scale(-1, 1) translate(-1.500000, -13.000000) " x="1" y="11" width="1" height="4"></rect>
            <use id="Rectangle-31" stroke="#333333" mask="url(#mask-20)" stroke-width="2" transform="translate(1.500000, 11.500000) scale(-1, 1) translate(-1.500000, -11.500000) " xlink:href="#path-19"></use>
            <path d="M18,15 L20,15 L20,17 L19,17 C18.4477153,17 18,16.5561352 18,16 L18,15 Z M19,15 L20,15 L20,16 L19,16 L19,15 Z" id="Combined-Shape" fill="#333333" transform="translate(19.000000, 16.000000) scale(-1, 1) translate(-19.000000, -16.000000) "></path>
            <rect id="Rectangle-30" fill="#333333" transform="translate(19.500000, 13.000000) scale(-1, 1) translate(-19.500000, -13.000000) " x="19" y="11" width="1" height="4"></rect>
            <use id="Rectangle-31" stroke="#333333" mask="url(#mask-22)" stroke-width="2" transform="translate(19.500000, 11.500000) scale(-1, 1) translate(-19.500000, -11.500000) " xlink:href="#path-21"></use>
        </g>
    </g>
</svg>