<?xml version="1.0" encoding="UTF-8"?>
<svg width="33px" height="27px" viewBox="0 0 33 27" version="1.1" xmlns="http://www.w3.org/2000/svg" xmlns:xlink="http://www.w3.org/1999/xlink">
    <!-- Generator: Sketch 61 (89581) - https://sketch.com -->
    <title>Icon/36x36/10</title>
    <desc>Created with Sketch.</desc>
    <defs>
        <path d="M6.57324219,6.50575427e-12 C6.8379529,6.50570564e-12 7.05967509,0.200418866 7.08628785,0.463788418 C7.36209595,3.18949897 7.5,4.86823617 7.5,5.5 C7.5,6.56281624 7.16292627,7.91122892 6.64749581,9.1066033 L6.65112305,9.11010742 L6.62785373,9.15188466 C6.46250772,9.53078909 6.27932585,9.89365425 6.08341322,10.2263716 C5.69391399,11.1427374 5.5,12.0679293 5.5,13.0009766 C5.5,14.3134766 5.66404724,17.9218496 5.99214172,23.8260956 C5.99746211,23.8829829 6,23.9411951 6,24 C6,25.1045695 5.1045695,26 4,26 C2.8954305,26 2,25.1045695 2,24 L2.00189048,23.9122501 L2.00189048,23.9122501 L2.00752258,23.8260956 C2.40916443,17.9396311 2.60998535,14.3312581 2.60998535,13.0009766 C2.60998535,12.1788847 2.45132511,11.3695198 2.13400462,10.5728819 C1.20399458,9.16840515 0.500000001,7.03596169 0.500000001,5.5 C0.500000001,3.98057725 0.647692647,2.31273812 0.94307794,0.496482582 C0.989651101,0.210256978 1.23686555,6.50580754e-12 1.52685547,6.50575427e-12 C1.81508038,6.50570132e-12 2.06076038,0.209043406 2.1069048,0.493550509 L2.1069048,0.493550509 L2.86938645,5.19469178 C2.87673911,5.24002517 2.91402485,5.27452256 2.95979201,5.27833649 C3.01482971,5.28292296 3.06316465,5.24202416 3.06775113,5.18698646 L3.06775113,5.18698646 L3.45847726,0.498272879 C3.48194725,0.216633056 3.71738395,6.50580618e-12 4,6.50575427e-12 C4.28255473,6.50570236e-12 4.51788051,0.216708869 4.54111497,0.498306692 L4.54111497,0.498306692 L4.93350887,5.2540569 C4.93721892,5.2990221 4.97057935,5.33593395 5.0149414,5.34415842 C5.06924453,5.35422592 5.12142723,5.31836584 5.13149472,5.26406271 L5.13149472,5.26406271 L6.02250841,0.458015574 C6.07172015,0.192571864 6.30327523,6.50580386e-12 6.57324219,6.50575427e-12 Z" id="path-1"></path>
        <path d="M6.57324219,0 C6.8379529,-4.86265682e-17 7.05967509,0.200418866 7.08628785,0.463788418 C7.36209595,3.18949897 7.5,4.86823617 7.5,5.5 C7.5,6.56281624 7.16292627,7.91122892 6.64749581,9.1066033 L6.65112305,9.11010742 L6.62785373,9.15188466 C6.46250772,9.53078909 6.27932585,9.89365425 6.08341322,10.2263716 C5.69391399,11.1427374 5.5,12.0679293 5.5,13.0009766 C5.5,14.3134766 5.66404724,17.9218496 5.99214172,23.8260956 C5.99746211,23.8829829 6,23.9411951 6,24 C6,25.1045695 5.1045695,26 4,26 C2.8954305,26 2,25.1045695 2,24 L2.00189048,23.9122501 L2.00189048,23.9122501 L2.00752258,23.8260956 C2.40916443,17.9396311 2.60998535,14.3312581 2.60998535,13.0009766 C2.60998535,12.1788847 2.45132511,11.3695198 2.13400462,10.5728819 C1.20399458,9.16840515 0.500000001,7.03596169 0.500000001,5.5 C0.500000001,3.98057725 0.647692647,2.31273812 0.94307794,0.496482582 C0.989651101,0.210256978 1.23686555,5.32702846e-17 1.52685547,0 C1.81508038,-5.29460572e-17 2.06076038,0.209043406 2.1069048,0.493550509 L2.1069048,0.493550509 L2.86938645,5.19469178 C2.87673911,5.24002517 2.91402485,5.27452256 2.95979201,5.27833649 C3.01482971,5.28292296 3.06316465,5.24202416 3.06775113,5.18698646 L3.06775113,5.18698646 L3.45847726,0.498272879 C3.48194725,0.216633056 3.71738395,5.19157257e-17 4,0 C4.28255473,-5.19044615e-17 4.51788051,0.216708869 4.54111497,0.498306692 L4.54111497,0.498306692 L4.93350887,5.2540569 C4.93721892,5.2990221 4.97057935,5.33593395 5.0149414,5.34415842 C5.06924453,5.35422592 5.12142723,5.31836584 5.13149472,5.26406271 L5.13149472,5.26406271 L6.02250841,0.458015574 C6.07172015,0.192571864 6.30327523,4.9592126e-17 6.57324219,0 Z" id="path-3"></path>
        <path d="M6,-2.9315439e-13 L6,18 L5.999,24.975 L6,25 C6,26.0543618 5.18412221,26.9181651 4.14926234,26.9945143 L4,27 C2.8954305,27 2,26.1045695 2,25 L2.00533733,24.8527631 L2.00533733,24.8527631 L2.02075195,24.7089996 L3,18 L3,17.4910714 C3,17.2099979 2.79847263,16.8915057 2.53688357,16.7738556 L1.72970572,16.4108263 C1.22522008,16.1839332 0.899621949,15.5553691 0.999401107,15.0232136 L3.33757749,2.55293956 C3.59044889,1.20429213 4.8667052,0.0998950822 5.86562487,0.00640998422 L6,-2.9315439e-13 Z" id="path-5"></path>
    </defs>
    <g id="Page-1" stroke="none" stroke-width="1" fill="none" fill-rule="evenodd">
        <g id="#01-1-1-Complaints-(1024px)" transform="translate(-928.000000, -280.000000)">
            <g id="Categories" transform="translate(31.000000, 265.000000)">
                <g id="Icon/36x36/11" style="mix-blend-mode: darken;" transform="translate(896.000000, 11.000000)">
                    <g id="Group-4" transform="translate(1.000000, 5.000000)">
                        <mask id="mask-2" fill="white">
                            <use xlink:href="#path-1"></use>
                        </mask>
                        <use id="Combined-Shape" fill="#EAEAEA" xlink:href="#path-1"></use>
                        <rect id="Rectangle" fill="#FFFFFF" mask="url(#mask-2)" x="0" y="-3" width="8" height="15"></rect>
                        <mask id="mask-4" fill="white">
                            <use xlink:href="#path-3"></use>
                        </mask>
                        <path stroke="#333333" d="M6.125121,9.05529019 L6.1883593,8.90862939 C6.69365838,7.73675146 7,6.46072946 7,5.5 C7,4.89233699 6.86259,3.21961391 6.58882111,0.514056057 C6.58801499,0.506078465 6.5812908,0.5 6.57324219,0.5 C6.54426617,0.5 6.51941297,0.520669067 6.51413099,0.549159593 L5.62311731,5.35520673 C5.56271237,5.68102552 5.24961617,5.89618595 4.92379738,5.83578101 C4.65762507,5.78643419 4.45746247,5.56496306 4.43520217,5.29517187 L4.04280827,0.539421658 C4.04097017,0.517144106 4.02235325,0.5 4,0.5 C3.97742827,0.5 3.95862462,0.517301858 3.95675014,0.539795619 L3.56602401,5.2285092 C3.53850516,5.55873541 3.24849548,5.80412822 2.91826927,5.77660936 C2.64366633,5.75372579 2.41995189,5.5467415 2.37583594,5.27474111 L1.61335429,0.573599839 C1.60647309,0.531173225 1.56983649,0.5 1.52685547,0.5 C1.48202175,0.5 1.44379079,0.532514547 1.43659382,0.57674515 C1.14533909,2.36760276 1,4.00886409 1,5.5 C1,6.91525066 1.66137863,8.95350978 2.5508919,10.2968294 L2.59851083,10.3878577 C2.93903154,11.24274 3.10998535,12.1148174 3.10998535,13.0009766 C3.10998535,14.3475958 2.90895295,17.9597686 2.50645762,23.858712 L2.50177448,23.9230196 L2.5,24 C2.5,24.8284271 3.17157288,25.5 4,25.5 C4.82842713,25.5 5.5,24.8284271 5.5,24 C5.5,23.9556673 5.49809038,23.9130309 5.49291193,23.8538374 C5.16418103,17.9381387 5,14.326823 5,13.0009766 C5,11.9985288 5.20832358,11.0069837 5.6525574,9.9726724 C5.81373028,9.6989534 5.9677617,9.40013466 6.125121,9.05529019 Z"></path>
                        <rect id="Rectangle" fill="#333333" mask="url(#mask-4)" x="3" y="12" width="2" height="1"></rect>
                    </g>
                    <g id="Group-3" transform="translate(28.000000, 4.000000)">
                        <mask id="mask-6" fill="white">
                            <use xlink:href="#path-5"></use>
                        </mask>
                        <use id="Combined-Shape" fill="#EAEAEA" xlink:href="#path-5"></use>
                        <polygon id="Rectangle" fill="#FFFFFF" mask="url(#mask-6)" points="1 -3 7 -3 7 17 1 17"></polygon>
                        <path d="M5.5,0.608264215 C4.76090265,0.902833273 3.99629168,1.75293398 3.82901359,2.64508383 L1.4908372,15.1153579 C1.43317037,15.4229143 1.64301255,15.8235941 1.93479376,15.9548231 L2.74197161,16.3178524 C3.18166254,16.515604 3.5,17.0116663 3.5,17.4910714 L3.49475751,18.072215 L2.51790235,24.7623051 L2.50500914,24.8708762 L2.5,25 C2.5,25.8284271 3.17157288,26.5 3.98163624,26.5003373 L4.11247369,26.4958695 C4.89201149,26.4383573 5.5,25.7866607 5.50039952,25.019984 L5.49900001,24.9749283 L5.5,18 L5.5,0.608264215 Z" id="Combined-Shape" stroke="#333333" mask="url(#mask-6)"></path>
                        <rect id="Rectangle" fill="#333333" mask="url(#mask-6)" x="3" y="17" width="3" height="1"></rect>
                    </g>
                    <circle id="Oval" stroke="#333333" fill="#FFFFFF" cx="18.5" cy="18.5" r="9"></circle>
                    <circle id="Oval" stroke="#333333" fill="#EAEAEA" cx="18.5" cy="18.5" r="6"></circle>
                </g>
            </g>
        </g>
    </g>
</svg>