<?xml version="1.0" encoding="UTF-8"?>
<svg width="21px" height="22px" viewBox="0 0 21 22" version="1.1" xmlns="http://www.w3.org/2000/svg" xmlns:xlink="http://www.w3.org/1999/xlink">
    <!-- Generator: Sketch 41 (35326) - http://www.bohemiancoding.com/sketch -->
    <title>Slice 4</title>
    <desc>Created with Sketch.</desc>
    <defs>
        <rect id="path-1" x="16" y="2" width="3" height="3"></rect>
        <mask id="mask-2" maskContentUnits="userSpaceOnUse" maskUnits="objectBoundingBox" x="0" y="0" width="3" height="3" fill="white">
            <use xlink:href="#path-1"></use>
        </mask>
        <rect id="path-3" x="0" y="0" width="17" height="7" rx="1"></rect>
        <mask id="mask-4" maskContentUnits="userSpaceOnUse" maskUnits="objectBoundingBox" x="0" y="0" width="17" height="7" fill="white">
            <use xlink:href="#path-3"></use>
        </mask>
        <rect id="path-5" x="7" y="13" width="3" height="9" rx="1"></rect>
        <mask id="mask-6" maskContentUnits="userSpaceOnUse" maskUnits="objectBoundingBox" x="0" y="0" width="3" height="9" fill="white">
            <use xlink:href="#path-5"></use>
        </mask>
    </defs>
    <g id="Symbols" stroke="none" stroke-width="1" fill="none" fill-rule="evenodd">
        <g id="Icon/36x36/04">
            <path d="M8,10 L9,10 L9,14 L8,14 L8,10 Z M8,9 L21,9 L21,10 L8,10 L8,9 Z M19,3 L21,3 L21,4 L19,4 L19,3 Z M20,4 L21,4 L21,9 L20,9 L20,4 Z" id="Combined-Shape" fill="#333333"></path>
            <use id="Rectangle-34" stroke="#333333" mask="url(#mask-2)" stroke-width="2" fill="#EAEAEA" xlink:href="#path-1"></use>
            <use id="Rectangle-33" stroke="#333333" mask="url(#mask-4)" stroke-width="2" fill="#FFFFFF" xlink:href="#path-3"></use>
            <use id="Rectangle-39" stroke="#333333" mask="url(#mask-6)" stroke-width="2" fill="#EAEAEA" xlink:href="#path-5"></use>
        </g>
    </g>
</svg>